<?xml version="1.0" standalone="no"?>
<!DOCTYPE svg PUBLIC "-//W3C//DTD SVG 20010904//EN"
 "http://www.w3.org/TR/2001/REC-SVG-20010904/DTD/svg10.dtd">
<svg version="1.0" xmlns="http://www.w3.org/2000/svg"
 width="298.000000pt" height="169.000000pt" viewBox="0 0 298.000000 169.000000"
 preserveAspectRatio="xMidYMid meet">

<g transform="translate(0.000000,169.000000) scale(0.100000,-0.100000)"
fill="#000000" stroke="none">
<path d="M893 1192 c-104 -37 -167 -95 -217 -202 -26 -55 -30 -76 -30 -146 0
-75 3 -89 37 -157 42 -86 92 -135 177 -176 47 -22 68 -26 150 -26 82 0 103 4
152 27 120 56 202 169 214 298 8 81 27 115 76 135 34 13 42 13 76 0 48 -20 68
-54 76 -133 12 -130 94 -244 214 -300 49 -23 70 -27 152 -27 82 0 103 4 150
26 85 41 135 90 177 176 34 68 37 82 37 158 0 76 -3 90 -37 158 -42 86 -92
135 -177 176 -47 22 -68 26 -150 26 -88 0 -101 -3 -162 -33 -76 -37 -146 -108
-174 -175 l-18 -44 -34 23 c-49 34 -95 40 -147 20 -24 -10 -49 -23 -55 -31
-10 -12 -17 -4 -41 44 -36 72 -101 134 -177 169 -76 35 -194 41 -269 14z m267
-73 c105 -56 164 -154 164 -274 0 -122 -63 -223 -177 -282 -72 -37 -187 -39
-265 -4 -66 30 -144 113 -166 177 -20 61 -21 157 0 217 18 53 91 140 138 164
102 53 209 54 306 2z m938 11 c66 -28 144 -111 166 -176 20 -61 20 -157 0
-218 -22 -64 -100 -147 -166 -177 -42 -19 -70 -24 -133 -23 -72 0 -87 3 -143
33 -107 58 -166 155 -166 276 0 144 97 269 239 306 50 13 146 3 203 -21z"/>
</g>
</svg>
